<?xml version="1.0" encoding="UTF-8"?>
<svg version="1.1" xmlns="http://www.w3.org/2000/svg" width="512" height="512">
<path d="M0 0 C6.10893048 5.11243827 9.88984765 12.16767572 13.99804688 18.88427734 C16.59048566 23.07549909 19.30204733 27.1887482 22 31.3125 C23.10215432 33.00612543 24.20372088 34.7001335 25.3046875 36.39453125 C25.84061523 37.21904785 26.37654297 38.04356445 26.92871094 38.89306641 C30.67968281 44.66872385 34.41817393 50.45246224 38.15722656 56.23583984 C40.43723929 59.76198316 42.71870206 63.28718809 45 66.8125 C45.91667341 68.2291623 46.83334008 69.64582897 47.75 71.0625 C48.20375 71.76375 48.6575 72.465 49.125 73.1875 C51.1875 76.375 51.1875 76.375 53.25 79.5625 C53.70407227 80.2642334 54.15814453 80.9659668 54.62597656 81.68896484 C55.53944205 83.10071374 56.45285381 84.5124974 57.36621094 85.92431641 C59.70640855 89.54151693 62.04763585 93.15804442 64.390625 96.7734375 C65.10895508 97.88235352 65.10895508 97.88235352 65.84179688 99.01367188 C66.73857467 100.39801819 67.635675 101.78215566 68.53320312 103.16601562 C68.95021484 103.80990234 69.36722656 104.45378906 69.796875 105.1171875 C70.22292526 105.73247818 70.64897552 106.34776886 71.0879364 106.98170471 C72.5 109.3125 72.5 109.3125 73.48677063 112.08299255 C75.05730417 115.7552579 76.40455229 117.74545375 79.5 120.3125 C86.81876976 122.49313898 94.95029438 121.72934408 102.49609375 121.60546875 C104.77296335 121.60739127 107.04983358 121.61415849 109.32667542 121.62556458 C115.30665998 121.64254157 121.28436512 121.59384995 127.26397705 121.53137207 C133.37063347 121.47922092 139.47715419 121.48931732 145.58398438 121.49414062 C157.55667436 121.49443984 169.52787919 121.42534947 181.5 121.3125 C181.49111755 120.05684235 181.48223511 118.80118469 181.4730835 117.50747681 C181.39184655 105.64942948 181.331962 93.79143894 181.29275131 81.93317604 C181.27191471 75.83733101 181.24366846 69.74171141 181.19824219 63.64599609 C181.15464494 57.75858736 181.13083337 51.87139489 181.12049103 45.98383713 C181.11312459 43.74245171 181.09873982 41.50107756 181.07707977 39.2597847 C181.04786184 36.10994533 181.04405174 32.96098916 181.04589844 29.81103516 C181.03151733 28.89321259 181.01713623 27.97539001 181.00231934 27.02975464 C181.06334647 17.35192426 184.57333293 8.20956593 191.5 1.3125 C199.66305876 -4.85088329 208.25088368 -7.7583032 218.5 -6.6875 C228.78083288 -4.78482642 236.54356067 0.76873234 242.5 9.3125 C246.38535257 16.40023301 246.64440585 23.18270117 246.61352539 31.05981445 C246.61367142 32.03590164 246.61381744 33.01198883 246.6139679 34.01765442 C246.61327242 37.2370528 246.6054971 40.456393 246.59765625 43.67578125 C246.59579077 45.91065947 246.59436748 48.1455381 246.59336853 50.38041687 C246.58955357 56.25763074 246.57973198 62.13481983 246.56866455 68.01202393 C246.55842849 74.01126775 246.5538662 80.01051558 246.54882812 86.00976562 C246.53810882 97.77735463 246.52104463 109.54492525 246.5 121.3125 C247.53817871 121.29678955 248.57635742 121.2810791 249.64599609 121.26489258 C253.54109776 121.21010943 257.4361662 121.17597615 261.33154297 121.14770508 C263.00933583 121.13272766 264.68709028 121.11233846 266.36474609 121.08618164 C279.42455515 120.88783433 290.37852451 121.01815584 300.5 130.3125 C307.21140554 136.9325939 310.36879595 144.03619523 310.75 153.5 C310.59964918 162.56615444 307.33712435 170.41888255 301.5 177.3125 C294.81548821 183.77137426 286.90640032 186.65633095 277.65539551 186.65197754 C276.88095093 186.63662964 276.10650635 186.62128174 275.30859375 186.60546875 C274.20167175 186.60093689 274.20167175 186.60093689 273.0723877 186.59631348 C270.36061268 186.58081921 267.64903971 186.53893811 264.9375 186.5 C258.853125 186.438125 252.76875 186.37625 246.5 186.3125 C246.5 200.1725 246.5 214.0325 246.5 228.3125 C258.60067114 228.19426833 258.60067114 228.19426833 270.70092773 228.04223633 C272.23680998 228.03346076 273.7726993 228.02581937 275.30859375 228.01953125 C276.08303833 228.00418335 276.85748291 227.98883545 277.65539551 227.97302246 C286.47990384 227.96886975 293.63493632 230.60242101 300.421875 236.2265625 C307.18119551 243.01129399 310.3976944 251.21333999 310.8125 260.6875 C310.52135558 270.63778878 306.69335351 278.04751403 299.80078125 285.03515625 C292.20722291 291.9802759 284.23251594 293.47856998 274.13671875 293.41015625 C273.34473587 293.4087413 272.55275299 293.40732635 271.73677063 293.40586853 C269.22030781 293.40029457 266.70393569 293.38774693 264.1875 293.375 C262.47591275 293.36998163 260.76432409 293.36541931 259.05273438 293.36132812 C254.86845492 293.35033368 250.68424281 293.33308707 246.5 293.3125 C246.50999275 295.15840225 246.50999275 295.15840225 246.52018738 297.04159546 C246.58112063 308.66420696 246.62603126 320.28678585 246.65543652 331.9095211 C246.67106247 337.8842474 246.69224473 343.85884427 246.72631836 349.83349609 C246.75902116 355.60418589 246.77687609 361.37475154 246.78463173 367.14552689 C246.79015564 369.34224017 246.80094235 371.53894701 246.81719017 373.73560715 C246.83910943 376.82307126 246.84196086 379.91002864 246.84057617 382.99755859 C246.85675491 384.34624023 246.85675491 384.34624023 246.8732605 385.72216797 C246.81978425 396.81114473 243.58264078 405.14596072 235.80078125 413.03515625 C228.91360072 419.334218 221.22113382 421.67707104 211.95703125 421.5234375 C202.90160672 420.74602427 194.6296465 416.98043036 188.58203125 410.14453125 C186.42632096 407.27765881 184.43513112 404.33014678 182.5 401.3125 C182.07912109 400.65620605 181.65824219 399.99991211 181.22460938 399.32373047 C178.74355812 395.43444305 176.29002341 391.52841577 173.84375 387.6171875 C170.27554691 381.9298303 166.61291228 376.30598241 162.9375 370.6875 C161.98170044 369.22594482 161.98170044 369.22594482 161.0065918 367.73486328 C159.75499133 365.82121808 158.50328512 363.90764204 157.25146484 361.99414062 C154.7400609 358.14896905 152.242919 354.29467378 149.75 350.4375 C149.31163818 349.75929199 148.87327637 349.08108398 148.42163086 348.38232422 C147.55115399 347.0352309 146.6807915 345.68806368 145.81054688 344.34082031 C143.542232 340.83017203 141.27091052 337.32146957 139 333.8125 C138.08593073 332.39974396 137.17186823 330.98698355 136.2578125 329.57421875 C134.39900452 326.70145545 132.53956198 323.82910418 130.6796875 320.95703125 C130.20982422 320.23128906 129.73996094 319.50554687 129.25585938 318.7578125 C128.38494794 317.41264236 127.51387622 316.06757597 126.64257812 314.72265625 C126.23201172 314.0884375 125.82144531 313.45421875 125.3984375 312.80078125 C124.96118851 312.16869247 124.52393951 311.5366037 124.07344055 310.88536072 C122.5 308.3125 122.5 308.3125 121.06352234 304.8674469 C119.19162289 300.72288508 117.17012134 297.10561492 113.5 294.3125 C106.20953221 291.69212649 97.92550219 292.54584228 90.30859375 292.7265625 C88.03459337 292.73023987 85.76057534 292.72773699 83.48658752 292.71932983 C77.5223456 292.71379088 71.56205393 292.7918265 65.59869385 292.88763428 C59.50540797 292.97062527 53.41212498 292.97409613 47.31835938 292.984375 C35.37757938 293.01617925 23.43946198 293.13632857 11.5 293.3125 C11.50999275 295.1993174 11.50999275 295.1993174 11.52018738 297.12425232 C11.58108812 308.99735055 11.62601573 320.87041695 11.65543652 332.74363613 C11.67107066 338.84730493 11.69226804 344.95084731 11.72631836 351.05444336 C11.75899174 356.94832153 11.77686994 362.84207834 11.78463173 368.73604012 C11.79016089 370.98102795 11.80095795 373.22600939 11.81719017 375.47094536 C11.83907018 378.62327131 11.84196247 381.77510017 11.84057617 384.92749023 C11.851362 385.84890808 11.86214783 386.77032593 11.8732605 387.71966553 C11.82480838 397.94838713 8.80351696 406.03633703 1.5 413.3125 C-6.62353863 419.50438287 -15.27382228 422.38090663 -25.5 421.3125 C-35.78083288 419.40982642 -43.54356067 413.85626766 -49.5 405.3125 C-53.38535257 398.22476699 -53.64440585 391.44229883 -53.61352539 383.56518555 C-53.61367142 382.58909836 -53.61381744 381.61301117 -53.6139679 380.60734558 C-53.61327242 377.3879472 -53.6054971 374.168607 -53.59765625 370.94921875 C-53.59579077 368.71434053 -53.59436748 366.4794619 -53.59336853 364.24458313 C-53.58955357 358.36736926 -53.57973198 352.49018017 -53.56866455 346.61297607 C-53.55842849 340.61373225 -53.5538662 334.61448442 -53.54882812 328.61523438 C-53.53810882 316.84764537 -53.52104463 305.08007475 -53.5 293.3125 C-54.53817871 293.32821045 -55.57635742 293.3439209 -56.64599609 293.36010742 C-60.54109776 293.41489057 -64.4361662 293.44902385 -68.33154297 293.47729492 C-70.00933583 293.49227234 -71.68709028 293.51266154 -73.36474609 293.53881836 C-86.42455515 293.73716567 -97.37852451 293.60684416 -107.5 284.3125 C-114.21140554 277.6924061 -117.36879595 270.58880477 -117.75 261.125 C-117.60136671 252.16241265 -114.44507846 244.02869742 -108.5 237.3125 C-100.34730043 230.262971 -93.05876737 227.97955545 -82.50390625 228.1171875 C-81.39396301 228.12020874 -81.39396301 228.12020874 -80.26159668 228.12329102 C-77.52850033 228.13366223 -74.79549316 228.16158398 -72.0625 228.1875 C-65.936875 228.22875 -59.81125 228.27 -53.5 228.3125 C-53.5 214.4525 -53.5 200.5925 -53.5 186.3125 C-65.60067114 186.43073167 -65.60067114 186.43073167 -77.70092773 186.58276367 C-79.23680998 186.59153924 -80.7726993 186.59918063 -82.30859375 186.60546875 C-83.08303833 186.62081665 -83.85748291 186.63616455 -84.65539551 186.65197754 C-93.47990384 186.65613025 -100.63493632 184.02257899 -107.421875 178.3984375 C-114.18119551 171.61370601 -117.3976944 163.41166001 -117.8125 153.9375 C-117.52135558 143.98721122 -113.69335351 136.57748597 -106.80078125 129.58984375 C-99.20722291 122.6447241 -91.23251594 121.14643002 -81.13671875 121.21484375 C-79.94874443 121.21696617 -79.94874443 121.21696617 -78.73677063 121.21913147 C-76.22030781 121.22470543 -73.70393569 121.23725307 -71.1875 121.25 C-69.47591275 121.25501837 -67.76432409 121.25958069 -66.05273438 121.26367188 C-61.86845492 121.27466632 -57.68424281 121.29191293 -53.5 121.3125 C-53.50666183 120.0818985 -53.51332367 118.851297 -53.52018738 117.58340454 C-53.58112063 105.96079304 -53.62603126 94.33821415 -53.65543652 82.7154789 C-53.67106247 76.7407526 -53.69224473 70.76615573 -53.72631836 64.79150391 C-53.75902116 59.02081411 -53.77687609 53.25024846 -53.78463173 47.47947311 C-53.79015564 45.28275983 -53.80094235 43.08605299 -53.81719017 40.88939285 C-53.83910943 37.80192874 -53.84196086 34.71497136 -53.84057617 31.62744141 C-53.851362 30.72832031 -53.86214783 29.82919922 -53.8732605 28.90283203 C-53.81978425 17.81385527 -50.58264078 9.47903928 -42.80078125 1.58984375 C-30.4228042 -9.73113751 -13.54690896 -9.03127264 0 0 Z M11.5 186.3125 C11.5 200.1725 11.5 214.0325 11.5 228.3125 C30.97 228.3125 50.44 228.3125 70.5 228.3125 C69.15640262 224.95350654 68.18723525 222.59270572 66.28515625 219.703125 C65.85130615 219.03877441 65.41745605 218.37442383 64.97045898 217.68994141 C64.50583252 216.98788574 64.04120605 216.28583008 63.5625 215.5625 C62.57538343 214.05477745 61.58840862 212.54696208 60.6015625 211.0390625 C60.09270508 210.2646582 59.58384766 209.49025391 59.05957031 208.69238281 C56.49990146 204.7863634 53.970159 200.86106289 51.4375 196.9375 C50.53027746 195.53364115 49.62274896 194.12997995 48.71484375 192.7265625 C48.14431274 191.84411865 48.14431274 191.84411865 47.56225586 190.94384766 C46.55237388 189.3929326 45.52659993 187.8523999 44.5 186.3125 C41.9482303 186.0456145 39.63532807 185.96381725 37.0859375 186.01953125 C36.43923096 186.02255249 35.79252441 186.02557373 35.1262207 186.02868652 C32.70898494 186.04439021 30.29197655 186.08627446 27.875 186.125 C19.769375 186.2178125 19.769375 186.2178125 11.5 186.3125 Z M122.5 186.3125 C123.93923659 189.91059148 125.08762515 192.44861227 127.15234375 195.578125 C127.6740918 196.37831055 128.19583984 197.17849609 128.73339844 198.00292969 C129.89350153 199.74541118 131.06522239 201.48020099 132.24707031 203.20800781 C135.15773602 207.50633456 137.72962743 211.56939378 139.64453125 216.40625 C141.78058023 221.37190336 143.61185864 225.6079835 148.5 228.3125 C159.47540595 230.43868638 170.37730212 229.05987496 181.5 228.3125 C181.5 214.4525 181.5 200.5925 181.5 186.3125 C162.03 186.3125 142.56 186.3125 122.5 186.3125 Z " fill="#000000" transform="translate(159.5,48.6875)"/>
</svg>
